<svg xmlns="http://www.w3.org/2000/svg" xmlns:xlink="http://www.w3.org/1999/xlink" width="432" zoomAndPan="magnify" viewBox="0 0 324 80.999996" height="108" preserveAspectRatio="xMidYMid meet" version="1.0"><path fill="#ffffff" d="M 146.4375 44.191406 C 146.289062 44.191406 146.070312 44.410156 145.925781 44.773438 C 145.339844 46.746094 144.753906 48.355469 144.171875 49.597656 C 143.953125 50.035156 143.660156 50.546875 143.21875 51.132812 C 142.78125 51.714844 142.269531 52.007812 141.6875 52.007812 C 140.957031 52.007812 140.296875 51.644531 139.640625 50.839844 C 138.980469 50.035156 138.324219 49.085938 137.738281 47.84375 C 137.15625 46.601562 136.570312 45.359375 136.132812 43.972656 C 135.695312 42.582031 135.328125 41.339844 134.964844 40.171875 C 134.671875 39.003906 134.453125 38.125 134.378906 37.46875 C 135.621094 36.808594 136.9375 35.933594 138.25 34.691406 C 139.566406 33.523438 140.734375 32.207031 141.6875 30.746094 C 142.636719 29.285156 143.148438 27.96875 143.148438 26.800781 C 143.148438 25.847656 142.929688 24.972656 142.488281 24.09375 C 142.050781 23.21875 141.101562 22.78125 139.640625 22.78125 C 137.960938 22.78125 136.425781 23.511719 135.109375 24.898438 C 133.722656 26.289062 132.550781 28.113281 131.527344 30.304688 C 130.507812 32.5 129.628906 34.835938 128.824219 37.175781 C 128.09375 39.585938 127.4375 41.777344 126.925781 43.824219 C 126.851562 42.363281 126.851562 40.976562 126.78125 39.511719 C 126.78125 39.222656 126.78125 38.929688 126.78125 38.636719 C 126.707031 36.589844 127.144531 34.542969 127.949219 32.71875 C 128.242188 32.058594 128.53125 31.402344 128.824219 30.671875 C 129.554688 28.917969 130.214844 27.238281 130.796875 25.558594 C 131.089844 24.753906 131.457031 23.511719 131.96875 21.683594 C 132.480469 19.855469 132.992188 17.882812 133.429688 15.765625 C 133.867188 13.574219 134.085938 11.527344 134.085938 9.554688 C 134.085938 7.652344 133.792969 6.046875 133.136719 4.730469 C 132.480469 3.417969 131.308594 2.757812 129.628906 2.757812 C 128.167969 2.757812 126.925781 3.34375 125.976562 4.4375 C 125.027344 5.535156 124.367188 6.996094 123.855469 8.824219 C 123.34375 10.648438 123.054688 12.550781 122.832031 14.667969 C 122.6875 16.789062 122.542969 18.761719 122.542969 20.734375 C 122.542969 22.339844 122.542969 23.804688 122.613281 25.117188 C 122.6875 26.433594 122.761719 27.53125 122.761719 28.261719 C 122.90625 30.527344 123.054688 32.863281 123.199219 35.347656 C 123.417969 40.390625 123.929688 45.945312 121.007812 50.402344 C 120.640625 50.984375 120.203125 51.496094 119.691406 51.863281 C 119.253906 52.15625 118.816406 52.300781 118.449219 52.300781 C 117.863281 52.300781 117.425781 52.007812 117.0625 51.351562 C 116.695312 50.765625 116.476562 49.960938 116.332031 49.085938 C 116.183594 48.210938 116.109375 47.332031 116.039062 46.457031 C 115.964844 45.578125 115.964844 44.847656 115.964844 44.410156 C 115.964844 42.582031 116.039062 40.828125 116.183594 39.003906 C 116.332031 37.175781 116.476562 35.640625 116.621094 34.324219 C 116.769531 33.011719 116.839844 32.132812 116.839844 31.839844 C 116.914062 31.402344 116.914062 30.890625 116.988281 30.378906 C 117.0625 29.867188 117.0625 29.285156 117.0625 28.699219 C 117.0625 27.601562 116.839844 26.578125 116.476562 25.703125 C 116.039062 24.824219 115.160156 24.316406 113.847656 24.316406 C 112.53125 24.316406 111.507812 24.824219 110.703125 25.847656 C 109.898438 26.871094 109.242188 27.894531 108.511719 28.917969 C 107.855469 29.941406 107.195312 30.964844 106.613281 31.988281 C 106.027344 33.082031 105.515625 34.324219 105.003906 35.785156 C 105.078125 34.984375 105.148438 34.03125 105.148438 32.9375 C 105.148438 31.839844 105.148438 30.890625 105.148438 30.015625 C 105.148438 28.84375 105.078125 27.820312 104.859375 27.019531 C 104.640625 26.214844 104.199219 25.777344 103.398438 25.777344 C 103.175781 25.777344 102.957031 25.777344 102.886719 25.847656 C 102.226562 25.996094 101.644531 26.289062 101.058594 26.652344 C 100.472656 27.089844 99.960938 27.308594 99.597656 27.382812 C 99.890625 28.40625 100.035156 29.722656 100.179688 31.402344 C 100.328125 33.082031 100.328125 34.910156 100.328125 36.808594 C 100.328125 41.265625 100.035156 45.796875 97.988281 49.816406 C 97.476562 50.839844 97.039062 51.496094 96.601562 51.863281 C 96.164062 52.226562 95.796875 52.375 95.433594 52.375 L 95.359375 52.375 C 94.699219 52.375 94.191406 52.007812 93.824219 51.203125 C 93.386719 50.402344 93.09375 49.453125 92.875 48.355469 C 92.65625 47.257812 92.507812 46.089844 92.363281 44.921875 C 92.289062 43.75 92.214844 42.730469 92.214844 41.851562 L 92.214844 41.558594 C 92.214844 39.511719 92.363281 37.394531 92.582031 35.273438 C 92.800781 33.15625 93.167969 31.109375 93.53125 29.355469 C 93.898438 27.53125 94.191406 26.140625 94.480469 25.046875 C 94.117188 24.972656 93.75 24.898438 93.457031 24.824219 C 93.09375 24.753906 92.800781 24.753906 92.507812 24.753906 C 91.703125 24.753906 91.046875 24.898438 90.535156 25.117188 C 90.023438 25.335938 89.585938 25.628906 89.21875 25.996094 C 88.929688 25.265625 88.417969 24.753906 87.6875 24.316406 C 86.957031 23.949219 86.226562 23.730469 85.347656 23.730469 C 83.15625 23.730469 81.328125 24.386719 79.867188 25.628906 C 78.40625 26.945312 77.308594 28.554688 76.507812 30.527344 C 75.703125 32.5 75.117188 34.617188 74.824219 36.808594 C 74.242188 40.683594 74.824219 45.433594 73.070312 49.160156 C 72.558594 50.253906 71.828125 51.058594 70.878906 51.644531 C 70.441406 51.863281 70.074219 52.007812 69.785156 52.007812 C 68.761719 52.007812 68.101562 51.203125 67.664062 49.597656 C 67.371094 48.792969 67.226562 47.699219 67.226562 46.457031 C 67.226562 45.066406 67.300781 43.605469 67.519531 42.070312 C 67.664062 40.535156 67.882812 39.003906 68.175781 37.539062 C 68.394531 36.078125 68.6875 34.835938 68.90625 33.8125 C 69.125 32.789062 69.273438 32.058594 69.34375 31.695312 C 69.5625 30.816406 69.710938 29.796875 69.710938 28.625 C 69.710938 27.53125 69.492188 26.507812 69.054688 25.628906 C 68.613281 24.753906 67.664062 24.242188 66.347656 24.242188 C 64.960938 24.242188 63.792969 24.753906 62.769531 25.777344 C 61.746094 26.800781 60.867188 27.820312 60.210938 28.84375 C 58.96875 30.671875 57.945312 32.570312 57.214844 34.542969 C 56.410156 36.519531 55.753906 38.5625 55.242188 40.609375 L 55.023438 35.496094 C 55.828125 33.960938 56.558594 32.351562 57.289062 30.597656 C 58.019531 28.84375 58.675781 27.164062 59.261719 25.484375 C 59.554688 24.679688 59.917969 23.4375 60.429688 21.683594 C 60.941406 19.929688 61.453125 17.957031 61.890625 15.765625 C 61.890625 15.617188 61.964844 15.546875 61.964844 15.398438 C 63.5 15.328125 65.035156 15.035156 66.421875 14.597656 C 68.175781 14.011719 69.636719 13.207031 70.734375 12.183594 C 71.828125 11.089844 72.414062 9.847656 72.414062 8.386719 C 72.414062 7.726562 72.195312 6.996094 71.757812 6.265625 C 71.609375 5.972656 71.316406 5.753906 71.027344 5.753906 C 70.734375 5.753906 70.585938 5.902344 70.585938 6.121094 C 70.585938 6.265625 70.660156 6.410156 70.734375 6.484375 C 70.878906 6.703125 71.027344 6.851562 71.097656 7.144531 C 71.171875 7.433594 71.171875 7.652344 71.171875 7.875 C 71.171875 8.96875 70.660156 9.917969 69.5625 10.578125 C 68.46875 11.234375 67.226562 11.746094 65.691406 12.039062 C 64.523438 12.257812 63.425781 12.476562 62.332031 12.550781 C 62.476562 11.527344 62.476562 10.503906 62.476562 9.480469 C 62.476562 7.582031 62.183594 5.972656 61.527344 4.660156 C 60.867188 3.34375 59.699219 2.683594 58.019531 2.683594 C 56.558594 2.683594 55.316406 3.269531 54.367188 4.367188 C 53.414062 5.460938 52.757812 6.921875 52.246094 8.75 C 51.953125 9.917969 51.660156 11.089844 51.515625 12.402344 C 50.859375 12.332031 50.199219 12.257812 49.542969 12.113281 C 41.359375 10.871094 33.246094 9.40625 24.992188 8.675781 C 24.1875 8.605469 23.308594 8.605469 22.507812 8.605469 C 21.042969 8.605469 19.363281 8.675781 17.390625 8.824219 C 15.417969 8.96875 13.445312 9.261719 11.472656 9.628906 C 9.425781 10.066406 7.597656 10.648438 5.847656 11.527344 C 4.09375 12.332031 2.703125 13.5 1.609375 14.886719 C 0.511719 16.351562 0 18.105469 0 20.222656 C 0 20.660156 0 21.027344 0.0742188 21.390625 C 0.144531 21.976562 0.65625 22.339844 1.167969 22.195312 C 1.609375 22.121094 1.898438 21.683594 1.828125 21.171875 C 1.828125 20.953125 1.753906 20.734375 1.753906 20.515625 C 1.753906 19.566406 2.046875 18.6875 2.628906 17.8125 C 3.726562 16.203125 5.847656 14.816406 8.839844 13.792969 C 11.835938 12.695312 15.417969 12.183594 19.730469 12.183594 C 20.242188 12.183594 20.824219 12.183594 21.335938 12.183594 C 21.847656 12.183594 22.433594 12.257812 23.019531 12.257812 C 24.992188 12.402344 26.890625 12.550781 28.71875 12.769531 C 30.542969 12.914062 32.445312 13.132812 34.269531 13.355469 C 33.757812 15.691406 33.320312 18.394531 32.882812 21.464844 C 32.445312 24.535156 32.078125 27.601562 31.859375 30.890625 C 31.640625 34.105469 31.492188 37.320312 31.492188 40.390625 C 31.492188 42.875 31.566406 45.214844 31.785156 47.40625 C 31.933594 49.597656 32.296875 51.496094 32.734375 53.25 C 33.175781 54.933594 33.90625 56.175781 35 56.976562 C 36.023438 57.78125 37.046875 58.21875 38.144531 58.21875 C 39.09375 58.21875 39.96875 57.925781 40.699219 57.269531 C 41.433594 56.613281 41.871094 55.734375 41.941406 54.492188 L 41.503906 54.492188 C 41.359375 54.640625 41.066406 54.859375 40.554688 55.003906 C 40.042969 55.152344 39.605469 55.296875 39.09375 55.296875 C 38.214844 55.296875 37.484375 54.785156 37.046875 53.761719 C 36.609375 52.738281 36.316406 51.425781 36.097656 49.890625 C 35.953125 48.355469 35.878906 46.746094 35.878906 45.214844 C 35.878906 44.703125 35.878906 44.117188 35.878906 43.679688 C 35.878906 43.167969 35.878906 42.730469 35.878906 42.21875 C 36.023438 39.003906 36.316406 35.640625 36.753906 32.058594 C 37.195312 28.554688 37.703125 25.191406 38.289062 21.976562 C 38.875 18.835938 39.386719 16.203125 39.824219 14.085938 C 43.113281 14.523438 46.472656 14.816406 49.980469 15.109375 C 50.347656 15.109375 50.710938 15.179688 51.078125 15.179688 C 50.929688 17.082031 50.859375 18.90625 50.859375 20.734375 C 50.859375 22.339844 50.859375 23.804688 50.929688 25.117188 C 51.003906 26.433594 51.078125 27.53125 51.078125 28.261719 C 51.222656 30.671875 51.371094 33.082031 51.515625 35.496094 C 51.589844 37.90625 51.660156 40.390625 51.660156 42.800781 L 51.660156 46.015625 C 51.660156 47.113281 51.589844 48.136719 51.515625 49.230469 C 51.441406 50.546875 51.441406 51.644531 51.371094 52.59375 C 51.296875 53.542969 51.222656 54.199219 51.148438 54.566406 C 51.734375 54.566406 52.390625 54.421875 53.050781 54.128906 C 53.78125 53.835938 54.292969 53.25 54.804688 52.375 C 54.949219 52.15625 55.023438 51.644531 55.167969 50.839844 C 55.242188 50.035156 55.316406 49.085938 55.460938 48.0625 C 55.535156 47.039062 55.609375 46.015625 55.753906 45.140625 C 55.828125 44.261719 55.898438 43.605469 55.972656 43.167969 C 56.484375 40.464844 57.214844 38.050781 58.09375 35.859375 C 59.042969 33.667969 59.917969 31.988281 60.796875 30.890625 C 61.308594 30.234375 61.746094 29.796875 62.109375 29.503906 C 62.476562 29.210938 62.769531 29.0625 62.988281 29.0625 C 63.425781 29.0625 63.71875 29.355469 63.863281 29.941406 C 64.011719 30.527344 64.082031 31.183594 64.082031 31.988281 C 64.082031 32.863281 64.011719 33.667969 63.863281 34.472656 C 63.71875 35.347656 63.574219 36.515625 63.351562 37.90625 C 63.132812 39.292969 62.914062 40.753906 62.769531 42.363281 C 62.621094 43.898438 62.550781 45.433594 62.550781 46.894531 C 62.550781 47.550781 62.550781 48.136719 62.621094 48.71875 C 62.695312 49.304688 62.769531 49.890625 62.839844 50.328125 C 63.0625 51.570312 63.574219 52.59375 64.449219 53.398438 C 65.253906 54.199219 66.347656 54.566406 67.519531 54.566406 L 67.664062 54.566406 C 69.492188 54.566406 71.027344 53.980469 72.195312 52.738281 C 73.289062 51.570312 74.167969 50.183594 74.753906 48.574219 C 74.753906 48.648438 74.753906 48.792969 74.824219 48.867188 C 75.191406 50.546875 75.703125 51.863281 76.433594 52.886719 C 77.164062 53.910156 78.039062 54.421875 79.136719 54.421875 L 79.210938 54.421875 C 80.378906 54.421875 81.476562 53.761719 82.496094 52.519531 C 83.519531 51.277344 84.398438 49.671875 85.273438 47.699219 C 86.078125 45.722656 86.808594 43.75 87.320312 41.707031 C 87.320312 42.800781 87.394531 44.042969 87.613281 45.503906 C 87.757812 46.96875 88.125 48.355469 88.5625 49.742188 C 89.074219 51.132812 89.730469 52.226562 90.535156 53.179688 C 91.414062 54.054688 92.507812 54.492188 93.898438 54.492188 C 95.285156 54.492188 96.453125 53.980469 97.40625 52.886719 C 98.355469 51.789062 99.160156 50.472656 99.667969 49.011719 C 99.597656 49.523438 99.597656 49.960938 99.523438 50.402344 C 99.449219 50.621094 99.449219 50.839844 99.449219 51.058594 L 99.449219 51.644531 C 99.449219 52.738281 99.667969 53.542969 100.109375 54.054688 C 100.546875 54.566406 101.058594 54.785156 101.714844 54.785156 C 102.152344 54.785156 102.59375 54.640625 103.105469 54.421875 C 103.617188 54.199219 103.980469 53.980469 104.347656 53.761719 C 104.054688 52.15625 103.90625 50.621094 103.90625 49.085938 C 103.90625 46.527344 104.199219 44.042969 104.710938 41.632812 C 105.222656 39.222656 105.953125 37.027344 106.757812 35.128906 C 107.5625 33.230469 108.367188 31.769531 109.167969 30.746094 C 109.972656 29.722656 110.628906 29.210938 111.140625 29.210938 C 111.652344 29.210938 112.019531 29.503906 112.164062 30.085938 C 112.3125 30.671875 112.382812 31.257812 112.382812 31.914062 C 112.382812 33.886719 112.238281 35.859375 111.945312 37.980469 C 111.652344 40.097656 111.507812 42.21875 111.507812 44.335938 C 111.507812 45.214844 111.507812 46.089844 111.582031 46.894531 C 111.652344 47.769531 111.800781 48.648438 111.945312 49.453125 C 112.238281 50.984375 112.75 52.226562 113.480469 53.25 C 114.210938 54.199219 115.160156 54.710938 116.402344 54.710938 C 118.304688 54.710938 119.765625 54.054688 120.859375 52.8125 C 121.808594 51.714844 122.542969 50.472656 123.054688 49.011719 C 123.054688 49.085938 123.054688 49.160156 123.054688 49.160156 C 122.980469 50.472656 122.980469 51.570312 122.90625 52.519531 C 122.832031 53.46875 122.761719 54.128906 122.6875 54.492188 C 123.855469 54.492188 124.804688 53.910156 125.609375 52.8125 C 125.976562 52.300781 126.195312 51.496094 126.339844 50.402344 C 126.414062 50.328125 126.488281 50.253906 126.488281 50.109375 C 126.707031 48.941406 127.144531 47.257812 127.730469 44.992188 C 128.3125 42.730469 129.042969 40.464844 129.921875 38.125 L 129.996094 38.125 C 129.996094 38.199219 129.996094 38.199219 129.996094 38.199219 C 129.996094 38.199219 129.996094 38.269531 129.996094 38.34375 C 130.066406 39.003906 130.285156 39.953125 130.507812 41.195312 C 130.726562 42.4375 131.089844 43.75 131.527344 45.140625 C 131.96875 46.527344 132.40625 47.84375 132.917969 49.011719 C 133.574219 50.621094 134.453125 52.007812 135.402344 53.03125 C 136.425781 54.054688 137.8125 54.566406 139.640625 54.566406 L 140.078125 54.566406 C 141.027344 54.492188 141.90625 54.199219 142.636719 53.6875 C 143.441406 53.179688 144.097656 52.445312 144.609375 51.570312 C 145.265625 50.546875 145.777344 49.453125 146.144531 48.28125 C 146.507812 47.113281 146.726562 46.015625 146.800781 45.066406 L 146.800781 44.773438 C 146.800781 44.410156 146.65625 44.191406 146.4375 44.191406 Z M 56.851562 9.261719 C 57.359375 7.363281 58.019531 6.410156 58.675781 6.410156 C 59.1875 6.410156 59.625 6.851562 59.847656 7.726562 C 60.066406 8.605469 60.210938 9.699219 60.285156 11.015625 L 60.285156 11.671875 C 60.285156 12.039062 60.285156 12.476562 60.285156 12.914062 C 59.480469 12.988281 58.824219 12.988281 58.3125 12.988281 C 57.582031 12.988281 56.777344 12.988281 56.046875 12.914062 C 56.265625 11.527344 56.558594 10.359375 56.851562 9.261719 Z M 54.875 32.789062 L 54.875 30.160156 C 54.875 27.894531 54.949219 25.628906 55.023438 23.292969 C 55.097656 20.953125 55.316406 18.613281 55.535156 16.277344 C 55.535156 16.058594 55.609375 15.765625 55.609375 15.546875 C 57.070312 15.617188 58.53125 15.617188 59.992188 15.617188 C 59.847656 16.496094 59.699219 17.445312 59.554688 18.394531 C 59.042969 20.808594 58.382812 23.292969 57.582031 25.777344 C 56.777344 28.1875 55.898438 30.527344 54.875 32.789062 Z M 87.539062 33.082031 C 87.394531 35.203125 87.027344 37.320312 86.445312 39.441406 C 86.078125 40.828125 85.640625 42.289062 85.128906 43.75 C 84.617188 45.214844 84.105469 46.527344 83.449219 47.550781 C 82.863281 48.574219 82.207031 49.085938 81.476562 49.085938 C 81.035156 49.085938 80.597656 48.792969 80.160156 48.210938 C 79.722656 47.625 79.503906 46.675781 79.355469 45.285156 C 79.28125 44.847656 79.28125 44.335938 79.28125 43.824219 C 79.28125 43.3125 79.28125 42.800781 79.28125 42.363281 C 79.28125 40.390625 79.429688 38.34375 79.792969 36.226562 C 80.160156 34.105469 80.671875 32.207031 81.402344 30.671875 C 81.988281 29.429688 82.789062 28.261719 83.8125 27.3125 C 84.835938 26.289062 85.859375 25.847656 86.882812 25.847656 C 87.539062 25.847656 88.199219 26.140625 88.710938 26.726562 C 88.125 28.773438 87.757812 30.890625 87.539062 33.082031 Z M 126.414062 33.011719 C 126.339844 32.71875 126.339844 32.5 126.339844 32.207031 L 126.339844 31.621094 C 126.339844 31.039062 126.339844 30.015625 126.414062 28.625 C 126.488281 27.164062 126.558594 25.558594 126.632812 23.730469 C 126.707031 21.902344 126.851562 20.003906 127 18.03125 C 127.144531 16.058594 127.363281 14.304688 127.65625 12.625 C 127.949219 10.722656 128.3125 9.1875 128.753906 8.164062 C 129.191406 7.070312 129.703125 6.558594 130.214844 6.558594 C 130.726562 6.558594 131.164062 6.996094 131.382812 7.875 C 131.601562 8.75 131.75 9.847656 131.820312 11.160156 L 131.820312 11.890625 C 131.820312 13.9375 131.601562 16.203125 131.089844 18.6875 C 130.578125 21.097656 129.921875 23.582031 129.117188 26.066406 C 128.3125 28.40625 127.363281 30.746094 126.414062 33.011719 Z M 130.359375 37.613281 C 130.652344 36.957031 131.019531 36.152344 131.527344 35.054688 C 132.039062 33.960938 132.625 32.863281 133.28125 31.695312 C 133.941406 30.597656 134.671875 29.574219 135.476562 28.84375 C 136.277344 28.042969 137.082031 27.675781 137.886719 27.675781 C 138.691406 27.675781 139.054688 28.113281 139.054688 28.992188 C 139.054688 29.867188 138.691406 30.890625 137.960938 32.207031 C 137.230469 33.449219 136.207031 34.617188 134.890625 35.714844 C 133.574219 36.664062 132.039062 37.320312 130.359375 37.613281 Z M 216.144531 23.144531 C 215.195312 22.050781 213.882812 21.539062 212.273438 21.539062 C 209.863281 21.539062 207.890625 22.195312 206.355469 23.4375 C 204.894531 24.753906 203.722656 26.359375 202.921875 28.261719 C 202.117188 30.160156 201.679688 32.132812 201.457031 34.03125 C 201.386719 34.765625 201.3125 35.640625 201.238281 36.589844 C 201.238281 36.882812 201.167969 37.175781 201.167969 37.46875 C 201.09375 37.101562 200.945312 36.882812 200.65625 36.808594 C 200.363281 36.738281 199.996094 36.664062 199.632812 36.664062 C 199.265625 36.664062 198.828125 36.738281 198.242188 36.808594 C 197.730469 36.882812 197.148438 37.101562 196.488281 37.46875 L 196.199219 37.613281 C 195.90625 35.421875 195.613281 33.230469 195.320312 30.890625 C 195.027344 28.625 194.664062 26.289062 194.296875 23.949219 C 194.003906 21.976562 193.714844 20.367188 193.492188 19.199219 C 193.273438 18.03125 193.128906 17.300781 192.980469 17.007812 C 192.910156 16.933594 192.910156 16.351562 192.835938 15.398438 C 192.761719 14.449219 192.691406 13.355469 192.617188 12.113281 C 192.542969 10.871094 192.398438 9.847656 192.25 8.894531 C 192.105469 7.945312 191.960938 7.507812 191.8125 7.507812 L 191.738281 7.507812 C 191.449219 7.070312 191.15625 6.851562 191.007812 6.851562 C 190.132812 6.921875 189.476562 7.433594 189.035156 8.457031 C 188.671875 9.480469 188.378906 10.941406 188.160156 12.769531 C 188.011719 14.597656 187.722656 16.714844 187.503906 19.054688 C 187.210938 21.390625 186.699219 23.875 186.039062 26.507812 C 185.238281 29.503906 184.214844 32.425781 182.972656 35.203125 C 181.730469 38.050781 180.414062 40.535156 178.953125 42.800781 C 177.492188 45.066406 175.957031 46.820312 174.277344 48.136719 C 172.667969 49.453125 170.988281 50.109375 169.378906 50.109375 L 169.015625 50.109375 C 167.773438 50.035156 166.894531 49.378906 166.382812 48.210938 C 165.871094 47.039062 165.652344 45.652344 165.652344 43.972656 C 165.652344 42.363281 165.800781 40.683594 166.09375 38.855469 C 166.382812 37.027344 166.75 35.273438 167.1875 33.523438 C 167.625 31.769531 167.992188 30.234375 168.429688 28.917969 C 168.796875 27.601562 169.089844 26.652344 169.234375 26.140625 C 169.527344 25.117188 169.890625 23.65625 170.332031 21.832031 C 170.769531 20.003906 171.207031 17.957031 171.644531 15.765625 C 172.011719 13.574219 172.230469 11.453125 172.230469 9.40625 C 172.230469 7.726562 172.011719 6.121094 171.644531 4.730469 C 171.28125 3.34375 170.621094 2.175781 169.746094 1.371094 C 168.867188 0.566406 167.554688 0.128906 165.945312 0.128906 C 163.609375 0.128906 161.5625 0.640625 159.734375 1.589844 C 157.90625 2.613281 156.300781 3.925781 154.984375 5.535156 C 153.597656 7.214844 152.5 8.96875 151.550781 10.871094 C 150.675781 12.769531 149.941406 14.667969 149.433594 16.570312 C 149.066406 17.957031 148.773438 19.347656 148.628906 20.734375 C 148.480469 22.121094 148.335938 23.4375 148.335938 24.679688 C 148.335938 26.726562 148.554688 28.625 148.921875 30.160156 C 149.359375 31.769531 149.796875 32.863281 150.382812 33.523438 C 150.675781 33.8125 150.964844 33.960938 151.257812 33.960938 C 151.84375 33.960938 152.136719 33.667969 152.136719 33.15625 C 152.136719 32.863281 151.988281 32.644531 151.695312 32.5 C 151.257812 32.28125 150.964844 31.769531 150.820312 30.964844 C 150.675781 30.160156 150.527344 29.210938 150.527344 28.042969 C 150.527344 26.359375 150.675781 24.460938 151.039062 22.269531 C 151.40625 20.078125 151.917969 17.8125 152.648438 15.546875 C 153.378906 13.28125 154.179688 11.160156 155.132812 9.261719 C 156.082031 7.363281 157.175781 5.753906 158.417969 4.585938 C 159.660156 3.417969 160.976562 2.757812 162.4375 2.757812 C 163.828125 2.757812 164.703125 3.5625 165.214844 5.097656 C 165.726562 6.632812 165.945312 8.53125 165.945312 10.796875 C 165.945312 12.625 165.800781 14.523438 165.582031 16.570312 C 165.359375 18.613281 165.070312 20.589844 164.703125 22.414062 C 164.339844 24.242188 164.046875 25.847656 163.753906 27.238281 C 163.460938 28.554688 163.316406 29.503906 163.242188 29.941406 C 163.097656 30.816406 162.804688 32.058594 162.4375 33.667969 C 162.074219 35.273438 161.78125 37.027344 161.414062 39.003906 C 161.125 40.902344 160.976562 42.800781 160.976562 44.628906 C 160.976562 46.96875 161.34375 49.011719 162.144531 50.839844 C 162.949219 52.59375 164.410156 53.542969 166.53125 53.6875 L 167.042969 53.6875 C 169.160156 53.6875 171.207031 53.03125 173.105469 51.789062 C 175.007812 50.472656 176.832031 48.792969 178.441406 46.601562 C 180.121094 44.410156 181.582031 41.925781 182.972656 39.222656 C 184.359375 36.445312 185.527344 33.59375 186.625 30.671875 C 187.136719 29.210938 187.574219 27.820312 188.085938 26.507812 C 188.523438 25.191406 188.964844 23.949219 189.328125 22.78125 C 189.476562 23.949219 189.621094 25.410156 189.765625 27.089844 C 189.914062 28.773438 190.132812 30.453125 190.351562 32.207031 C 190.570312 33.960938 190.71875 35.566406 190.863281 37.027344 C 191.007812 38.492188 191.082031 39.511719 191.230469 40.246094 C 188.453125 42.070312 185.894531 44.117188 183.484375 46.457031 C 181.070312 48.792969 178.660156 51.714844 176.25 55.152344 C 174.640625 57.488281 173.105469 60.121094 171.792969 62.894531 C 170.476562 65.746094 169.820312 68.597656 169.820312 71.59375 C 169.820312 73.273438 170.109375 74.808594 170.621094 76.195312 C 171.132812 77.582031 172.082031 78.753906 173.398438 79.558594 C 174.714844 80.433594 176.394531 80.871094 178.515625 80.871094 C 181.4375 80.871094 183.996094 80.140625 186.039062 78.753906 C 188.085938 77.292969 189.839844 75.464844 191.230469 73.054688 C 192.617188 70.714844 193.714844 68.085938 194.515625 65.234375 C 195.320312 62.386719 195.90625 59.535156 196.199219 56.613281 C 196.5625 53.761719 196.710938 51.132812 196.710938 48.71875 C 196.710938 45.140625 196.5625 41.996094 196.269531 39.222656 C 196.710938 38.929688 197.21875 38.710938 197.953125 38.417969 C 198.683594 38.125 199.339844 37.980469 199.925781 37.980469 C 200.144531 37.980469 200.363281 37.90625 200.582031 37.832031 C 200.726562 37.761719 200.875 37.613281 200.875 37.46875 C 200.800781 38.199219 200.800781 38.929688 200.800781 39.734375 C 200.800781 41.195312 200.875 42.730469 201.09375 44.335938 C 201.3125 45.871094 201.679688 47.332031 202.1875 48.648438 C 202.699219 49.960938 203.429688 51.058594 204.453125 51.863281 C 205.40625 52.667969 206.71875 53.105469 208.253906 53.105469 C 209.863281 53.105469 211.25 52.519531 212.417969 51.425781 C 213.589844 50.328125 214.613281 48.941406 215.414062 47.332031 C 216.21875 45.726562 216.804688 44.191406 217.167969 42.800781 C 217.460938 41.707031 217.753906 40.246094 218.046875 38.492188 C 218.265625 36.738281 218.410156 34.835938 218.410156 32.9375 C 218.410156 31.039062 218.191406 29.210938 217.828125 27.457031 C 217.679688 25.628906 217.023438 24.242188 216.144531 23.144531 Z M 192.105469 59.167969 C 191.886719 61.652344 191.449219 64.140625 190.9375 66.476562 C 190.351562 68.816406 189.621094 70.933594 188.597656 72.835938 C 187.574219 74.734375 186.332031 76.269531 184.726562 77.363281 C 183.191406 78.460938 181.21875 79.046875 178.953125 79.046875 C 177.5625 79.046875 176.542969 78.605469 175.664062 77.804688 C 174.859375 77 174.277344 75.902344 173.910156 74.660156 C 173.546875 73.417969 173.398438 72.101562 173.398438 70.714844 C 173.398438 68.15625 173.984375 65.453125 175.152344 62.605469 C 176.320312 59.753906 177.855469 56.90625 179.683594 54.199219 C 181.582031 51.496094 183.554688 49.011719 185.75 46.820312 C 187.867188 44.628906 189.914062 42.875 191.886719 41.632812 C 192.03125 42.800781 192.179688 44.261719 192.25 46.089844 C 192.398438 47.917969 192.398438 49.816406 192.398438 51.863281 C 192.472656 54.273438 192.324219 56.683594 192.105469 59.167969 Z M 216.21875 39.148438 C 216.074219 40.246094 215.925781 41.121094 215.78125 41.851562 C 215.632812 42.65625 215.269531 43.679688 214.832031 44.847656 C 214.390625 46.015625 213.808594 47.039062 213.148438 47.988281 C 212.492188 48.867188 211.6875 49.378906 210.738281 49.378906 C 209.714844 49.378906 208.910156 48.867188 208.328125 47.84375 C 207.816406 46.820312 207.378906 45.503906 207.230469 43.972656 C 207.011719 42.4375 206.9375 40.902344 206.9375 39.367188 C 206.9375 38.125 207.011719 37.027344 207.085938 36.007812 C 207.304688 33.300781 207.378906 30.304688 208.765625 27.894531 C 209.714844 26.214844 211.835938 25.335938 213.589844 26.507812 C 214.902344 27.382812 215.632812 28.992188 216 30.527344 C 216.367188 32.207031 216.4375 34.03125 216.4375 35.714844 C 216.367188 36.882812 216.292969 38.050781 216.21875 39.148438 Z M 324 44.261719 C 323.414062 42.582031 322.390625 41.121094 321.148438 39.878906 C 319.90625 38.710938 318.445312 37.761719 316.839844 37.101562 C 313.625 35.714844 310.1875 34.984375 306.753906 34.691406 C 305.878906 34.617188 305 34.617188 304.125 34.617188 C 303.246094 34.617188 302.371094 34.617188 301.492188 34.691406 C 300.617188 34.765625 299.738281 34.835938 298.863281 34.910156 C 298.425781 34.984375 297.988281 35.054688 297.546875 35.128906 C 297.109375 35.203125 296.671875 35.273438 296.234375 35.347656 C 292.796875 35.933594 289.4375 36.882812 286.074219 37.980469 C 282.714844 39.074219 279.425781 40.316406 276.136719 41.707031 L 271.167969 43.679688 C 270.367188 44.042969 269.5625 44.335938 268.683594 44.703125 C 267.808594 44.992188 267.003906 45.359375 266.128906 45.578125 C 262.691406 46.746094 259.039062 47.550781 255.3125 47.257812 C 253.484375 47.113281 251.585938 46.675781 249.976562 45.796875 C 249.175781 45.359375 248.371094 44.847656 247.714844 44.191406 C 247.347656 43.898438 247.054688 43.53125 246.761719 43.167969 C 246.691406 44.335938 246.324219 45.652344 245.8125 47.113281 C 245.300781 48.574219 244.496094 49.890625 243.546875 50.984375 C 242.597656 52.082031 241.429688 52.59375 240.039062 52.59375 C 238.507812 52.59375 237.265625 52.007812 236.386719 50.914062 C 235.511719 49.816406 234.851562 48.429688 234.414062 46.820312 C 233.976562 45.214844 233.757812 43.679688 233.683594 42.144531 C 233.390625 43.3125 233.027344 44.480469 232.585938 45.652344 C 232.148438 46.820312 231.710938 47.84375 231.125 48.792969 C 229.519531 51.277344 227.765625 52.519531 225.792969 52.519531 C 224.769531 52.519531 223.890625 52.082031 223.089844 51.277344 C 222.285156 50.472656 221.699219 49.230469 221.335938 47.550781 C 221.1875 46.746094 221.042969 45.796875 220.96875 44.628906 C 220.894531 43.460938 220.894531 42.21875 220.894531 40.902344 C 220.894531 38.929688 220.96875 36.882812 221.113281 34.691406 C 221.261719 32.570312 221.480469 30.597656 221.773438 28.84375 C 222.066406 27.019531 222.355469 25.703125 222.722656 24.753906 C 222.941406 24.242188 223.378906 23.730469 223.964844 23.292969 C 224.550781 22.851562 225.351562 22.707031 226.375 22.707031 C 227.035156 22.707031 227.765625 22.78125 228.421875 23 C 228.277344 23.511719 228.058594 24.679688 227.617188 26.507812 C 227.253906 28.332031 226.886719 30.453125 226.667969 32.71875 C 226.523438 34.324219 226.304688 35.933594 226.15625 37.539062 C 226.011719 39.222656 225.9375 40.753906 225.9375 42.21875 C 225.9375 44.042969 226.082031 45.652344 226.375 46.894531 C 226.667969 48.136719 227.179688 48.792969 227.910156 48.792969 C 228.789062 48.792969 229.519531 48.28125 230.175781 47.257812 C 230.832031 46.234375 231.417969 44.992188 231.929688 43.386719 C 232.441406 41.851562 232.804688 40.316406 233.097656 38.78125 C 233.539062 36.519531 233.902344 34.105469 234.195312 31.476562 C 234.488281 28.84375 234.851562 26.652344 235.289062 24.753906 C 235.4375 24.242188 235.800781 23.730469 236.460938 23.292969 C 237.117188 22.851562 237.921875 22.707031 238.945312 22.707031 C 239.601562 22.707031 240.332031 22.78125 240.992188 23 C 240.625 24.023438 240.261719 25.484375 239.96875 27.457031 C 239.601562 29.429688 239.308594 31.621094 239.089844 34.03125 C 238.871094 36.445312 238.726562 38.78125 238.726562 41.195312 C 238.726562 42.363281 238.796875 43.679688 238.871094 45.066406 C 239.019531 46.457031 239.238281 47.699219 239.601562 48.648438 C 239.96875 49.671875 240.550781 50.109375 241.28125 50.109375 L 241.355469 50.109375 C 241.722656 50.109375 242.085938 49.960938 242.523438 49.597656 C 242.964844 49.230469 243.402344 48.574219 243.914062 47.550781 C 244.277344 46.894531 244.570312 46.164062 244.863281 45.285156 C 245.007812 44.773438 245.230469 44.191406 245.375 43.679688 C 245.519531 43.3125 245.59375 42.949219 245.738281 42.582031 C 245.8125 42.363281 245.960938 41.996094 246.25 41.925781 C 246.324219 41.925781 246.472656 41.925781 246.542969 41.996094 C 246.617188 42.070312 246.691406 42.144531 246.761719 42.21875 C 247.128906 42.582031 247.492188 42.949219 247.933594 43.238281 C 248.296875 43.53125 248.664062 43.824219 249.101562 44.042969 C 249.46875 44.261719 249.90625 44.480469 250.34375 44.703125 C 251.878906 45.359375 253.632812 45.652344 255.3125 45.652344 C 256.992188 45.652344 258.746094 45.433594 260.425781 45.066406 C 262.109375 44.703125 263.789062 44.191406 265.398438 43.53125 C 267.003906 42.949219 268.613281 42.21875 270.292969 41.488281 L 275.1875 39.367188 C 278.476562 37.980469 281.835938 36.664062 285.273438 35.566406 C 288.707031 34.472656 292.214844 33.59375 295.792969 33.011719 C 299.375 32.5 303.027344 32.28125 306.683594 32.789062 C 308.507812 33.011719 310.261719 33.375 312.015625 33.886719 C 313.769531 34.398438 315.449219 35.054688 317.058594 35.933594 C 318.664062 36.808594 320.199219 37.90625 321.371094 39.292969 C 321.953125 40.023438 322.464844 40.753906 322.902344 41.558594 C 323.488281 42.507812 323.855469 43.386719 324 44.261719 Z M 324 44.261719 " fill-opacity="1" fill-rule="nonzero"/><path fill="#ffffff" d="M 146.4375 44.191406 C 146.289062 44.191406 146.070312 44.410156 145.925781 44.773438 C 145.339844 46.746094 144.753906 48.355469 144.171875 49.597656 C 143.953125 50.035156 143.660156 50.546875 143.21875 51.132812 C 142.78125 51.714844 142.269531 52.007812 141.6875 52.007812 C 140.957031 52.007812 140.296875 51.644531 139.640625 50.839844 C 138.980469 50.035156 138.324219 49.085938 137.738281 47.84375 C 137.15625 46.601562 136.570312 45.359375 136.132812 43.972656 C 135.695312 42.582031 135.328125 41.339844 134.964844 40.171875 C 134.671875 39.003906 134.453125 38.125 134.378906 37.46875 C 135.621094 36.808594 136.9375 35.933594 138.25 34.691406 C 139.566406 33.523438 140.734375 32.207031 141.6875 30.746094 C 142.636719 29.285156 143.148438 27.96875 143.148438 26.800781 C 143.148438 25.847656 142.929688 24.972656 142.488281 24.09375 C 142.050781 23.21875 141.101562 22.78125 139.640625 22.78125 C 137.960938 22.78125 136.425781 23.511719 135.109375 24.898438 C 133.722656 26.289062 132.550781 28.113281 131.527344 30.304688 C 130.507812 32.5 129.628906 34.835938 128.824219 37.175781 C 128.09375 39.585938 127.4375 41.777344 126.925781 43.824219 C 126.851562 42.363281 126.851562 40.976562 126.78125 39.511719 C 126.78125 39.222656 126.78125 38.929688 126.78125 38.636719 C 126.707031 36.589844 127.144531 34.542969 127.949219 32.71875 C 128.242188 32.058594 128.53125 31.402344 128.824219 30.671875 C 129.554688 28.917969 130.214844 27.238281 130.796875 25.558594 C 131.089844 24.753906 131.457031 23.511719 131.96875 21.683594 C 132.480469 19.855469 132.992188 17.882812 133.429688 15.765625 C 133.867188 13.574219 134.085938 11.527344 134.085938 9.554688 C 134.085938 7.652344 133.792969 6.046875 133.136719 4.730469 C 132.480469 3.417969 131.308594 2.757812 129.628906 2.757812 C 128.167969 2.757812 126.925781 3.34375 125.976562 4.4375 C 125.027344 5.535156 124.367188 6.996094 123.855469 8.824219 C 123.34375 10.648438 123.054688 12.550781 122.832031 14.667969 C 122.6875 16.789062 122.542969 18.761719 122.542969 20.734375 C 122.542969 22.339844 122.542969 23.804688 122.613281 25.117188 C 122.6875 26.433594 122.761719 27.53125 122.761719 28.261719 C 122.90625 30.527344 123.054688 32.863281 123.199219 35.347656 C 123.417969 40.390625 123.929688 45.945312 121.007812 50.402344 C 120.640625 50.984375 120.203125 51.496094 119.691406 51.863281 C 119.253906 52.15625 118.816406 52.300781 118.449219 52.300781 C 117.863281 52.300781 117.425781 52.007812 117.0625 51.351562 C 116.695312 50.765625 116.476562 49.960938 116.332031 49.085938 C 116.183594 48.210938 116.109375 47.332031 116.039062 46.457031 C 115.964844 45.578125 115.964844 44.847656 115.964844 44.410156 C 115.964844 42.582031 116.039062 40.828125 116.183594 39.003906 C 116.332031 37.175781 116.476562 35.640625 116.621094 34.324219 C 116.769531 33.011719 116.839844 32.132812 116.839844 31.839844 C 116.914062 31.402344 116.914062 30.890625 116.988281 30.378906 C 117.0625 29.867188 117.0625 29.285156 117.0625 28.699219 C 117.0625 27.601562 116.839844 26.578125 116.476562 25.703125 C 116.039062 24.824219 115.160156 24.316406 113.847656 24.316406 C 112.53125 24.316406 111.507812 24.824219 110.703125 25.847656 C 109.898438 26.871094 109.242188 27.894531 108.511719 28.917969 C 107.855469 29.941406 107.195312 30.964844 106.613281 31.988281 C 106.027344 33.082031 105.515625 34.324219 105.003906 35.785156 C 105.078125 34.984375 105.148438 34.03125 105.148438 32.9375 C 105.148438 31.839844 105.148438 30.890625 105.148438 30.015625 C 105.148438 28.84375 105.078125 27.820312 104.859375 27.019531 C 104.640625 26.214844 104.199219 25.777344 103.398438 25.777344 C 103.175781 25.777344 102.957031 25.777344 102.886719 25.847656 C 102.226562 25.996094 101.644531 26.289062 101.058594 26.652344 C 100.472656 27.089844 99.960938 27.308594 99.597656 27.382812 C 99.890625 28.40625 100.035156 29.722656 100.179688 31.402344 C 100.328125 33.082031 100.328125 34.910156 100.328125 36.808594 C 100.328125 41.265625 100.035156 45.796875 97.988281 49.816406 C 97.476562 50.839844 97.039062 51.496094 96.601562 51.863281 C 96.164062 52.226562 95.796875 52.375 95.433594 52.375 L 95.359375 52.375 C 94.699219 52.375 94.191406 52.007812 93.824219 51.203125 C 93.386719 50.402344 93.09375 49.453125 92.875 48.355469 C 92.65625 47.257812 92.507812 46.089844 92.363281 44.921875 C 92.289062 43.75 92.214844 42.730469 92.214844 41.851562 L 92.214844 41.558594 C 92.214844 39.511719 92.363281 37.394531 92.582031 35.273438 C 92.800781 33.15625 93.167969 31.109375 93.53125 29.355469 C 93.898438 27.53125 94.191406 26.140625 94.480469 25.046875 C 94.117188 24.972656 93.75 24.898438 93.457031 24.824219 C 93.09375 24.753906 92.800781 24.753906 92.507812 24.753906 C 91.703125 24.753906 91.046875 24.898438 90.535156 25.117188 C 90.023438 25.335938 89.585938 25.628906 89.21875 25.996094 C 88.929688 25.265625 88.417969 24.753906 87.6875 24.316406 C 86.957031 23.949219 86.226562 23.730469 85.347656 23.730469 C 83.15625 23.730469 81.328125 24.386719 79.867188 25.628906 C 78.40625 26.945312 77.308594 28.554688 76.507812 30.527344 C 75.703125 32.5 75.117188 34.617188 74.824219 36.808594 C 74.242188 40.683594 74.824219 45.433594 73.070312 49.160156 C 72.558594 50.253906 71.828125 51.058594 70.878906 51.644531 C 70.441406 51.863281 70.074219 52.007812 69.785156 52.007812 C 68.761719 52.007812 68.101562 51.203125 67.664062 49.597656 C 67.371094 48.792969 67.226562 47.699219 67.226562 46.457031 C 67.226562 45.066406 67.300781 43.605469 67.519531 42.070312 C 67.664062 40.535156 67.882812 39.003906 68.175781 37.539062 C 68.394531 36.078125 68.6875 34.835938 68.90625 33.8125 C 69.125 32.789062 69.273438 32.058594 69.34375 31.695312 C 69.5625 30.816406 69.710938 29.796875 69.710938 28.625 C 69.710938 27.53125 69.492188 26.507812 69.054688 25.628906 C 68.613281 24.753906 67.664062 24.242188 66.347656 24.242188 C 64.960938 24.242188 63.792969 24.753906 62.769531 25.777344 C 61.746094 26.800781 60.867188 27.820312 60.210938 28.84375 C 58.96875 30.671875 57.945312 32.570312 57.214844 34.542969 C 56.410156 36.519531 55.753906 38.5625 55.242188 40.609375 L 55.023438 35.496094 C 55.828125 33.960938 56.558594 32.351562 57.289062 30.597656 C 58.019531 28.84375 58.675781 27.164062 59.261719 25.484375 C 59.554688 24.679688 59.917969 23.4375 60.429688 21.683594 C 60.941406 19.929688 61.453125 17.957031 61.890625 15.765625 C 61.890625 15.617188 61.964844 15.546875 61.964844 15.398438 C 63.5 15.328125 65.035156 15.035156 66.421875 14.597656 C 68.175781 14.011719 69.636719 13.207031 70.734375 12.183594 C 71.828125 11.089844 72.414062 9.847656 72.414062 8.386719 C 72.414062 7.726562 72.195312 6.996094 71.757812 6.265625 C 71.609375 5.972656 71.316406 5.753906 71.027344 5.753906 C 70.734375 5.753906 70.585938 5.902344 70.585938 6.121094 C 70.585938 6.265625 70.660156 6.410156 70.734375 6.484375 C 70.878906 6.703125 71.027344 6.851562 71.097656 7.144531 C 71.171875 7.433594 71.171875 7.652344 71.171875 7.875 C 71.171875 8.96875 70.660156 9.917969 69.5625 10.578125 C 68.46875 11.234375 67.226562 11.746094 65.691406 12.039062 C 64.523438 12.257812 63.425781 12.476562 62.332031 12.550781 C 62.476562 11.527344 62.476562 10.503906 62.476562 9.480469 C 62.476562 7.582031 62.183594 5.972656 61.527344 4.660156 C 60.867188 3.34375 59.699219 2.683594 58.019531 2.683594 C 56.558594 2.683594 55.316406 3.269531 54.367188 4.367188 C 53.414062 5.460938 52.757812 6.921875 52.246094 8.75 C 51.953125 9.917969 51.660156 11.089844 51.515625 12.402344 C 50.859375 12.332031 50.199219 12.257812 49.542969 12.113281 C 41.359375 10.871094 33.246094 9.40625 24.992188 8.675781 C 24.1875 8.605469 23.308594 8.605469 22.507812 8.605469 C 21.042969 8.605469 19.363281 8.675781 17.390625 8.824219 C 15.417969 8.96875 13.445312 9.261719 11.472656 9.628906 C 9.425781 10.066406 7.597656 10.648438 5.847656 11.527344 C 4.09375 12.332031 2.703125 13.5 1.609375 14.886719 C 0.511719 16.351562 0 18.105469 0 20.222656 C 0 20.660156 0 21.027344 0.0742188 21.390625 C 0.144531 21.976562 0.65625 22.339844 1.167969 22.195312 C 1.609375 22.121094 1.898438 21.683594 1.828125 21.171875 C 1.828125 20.953125 1.753906 20.734375 1.753906 20.515625 C 1.753906 19.566406 2.046875 18.6875 2.628906 17.8125 C 3.726562 16.203125 5.847656 14.816406 8.839844 13.792969 C 11.835938 12.695312 15.417969 12.183594 19.730469 12.183594 C 20.242188 12.183594 20.824219 12.183594 21.335938 12.183594 C 21.847656 12.183594 22.433594 12.257812 23.019531 12.257812 C 24.992188 12.402344 26.890625 12.550781 28.71875 12.769531 C 30.542969 12.914062 32.445312 13.132812 34.269531 13.355469 C 33.757812 15.691406 33.320312 18.394531 32.882812 21.464844 C 32.445312 24.535156 32.078125 27.601562 31.859375 30.890625 C 31.640625 34.105469 31.492188 37.320312 31.492188 40.390625 C 31.492188 42.875 31.566406 45.214844 31.785156 47.40625 C 31.933594 49.597656 32.296875 51.496094 32.734375 53.25 C 33.175781 54.933594 33.90625 56.175781 35 56.976562 C 36.023438 57.78125 37.046875 58.21875 38.144531 58.21875 C 39.09375 58.21875 39.96875 57.925781 40.699219 57.269531 C 41.433594 56.613281 41.871094 55.734375 41.941406 54.492188 L 41.503906 54.492188 C 41.359375 54.640625 41.066406 54.859375 40.554688 55.003906 C 40.042969 55.152344 39.605469 55.296875 39.09375 55.296875 C 38.214844 55.296875 37.484375 54.785156 37.046875 53.761719 C 36.609375 52.738281 36.316406 51.425781 36.097656 49.890625 C 35.953125 48.355469 35.878906 46.746094 35.878906 45.214844 C 35.878906 44.703125 35.878906 44.117188 35.878906 43.679688 C 35.878906 43.167969 35.878906 42.730469 35.878906 42.21875 C 36.023438 39.003906 36.316406 35.640625 36.753906 32.058594 C 37.195312 28.554688 37.703125 25.191406 38.289062 21.976562 C 38.875 18.835938 39.386719 16.203125 39.824219 14.085938 C 43.113281 14.523438 46.472656 14.816406 49.980469 15.109375 C 50.347656 15.109375 50.710938 15.179688 51.078125 15.179688 C 50.929688 17.082031 50.859375 18.90625 50.859375 20.734375 C 50.859375 22.339844 50.859375 23.804688 50.929688 25.117188 C 51.003906 26.433594 51.078125 27.53125 51.078125 28.261719 C 51.222656 30.671875 51.371094 33.082031 51.515625 35.496094 C 51.589844 37.90625 51.660156 40.390625 51.660156 42.800781 L 51.660156 46.015625 C 51.660156 47.113281 51.589844 48.136719 51.515625 49.230469 C 51.441406 50.546875 51.441406 51.644531 51.371094 52.59375 C 51.296875 53.542969 51.222656 54.199219 51.148438 54.566406 C 51.734375 54.566406 52.390625 54.421875 53.050781 54.128906 C 53.78125 53.835938 54.292969 53.25 54.804688 52.375 C 54.949219 52.15625 55.023438 51.644531 55.167969 50.839844 C 55.242188 50.035156 55.316406 49.085938 55.460938 48.0625 C 55.535156 47.039062 55.609375 46.015625 55.753906 45.140625 C 55.828125 44.261719 55.898438 43.605469 55.972656 43.167969 C 56.484375 40.464844 57.214844 38.050781 58.09375 35.859375 C 59.042969 33.667969 59.917969 31.988281 60.796875 30.890625 C 61.308594 30.234375 61.746094 29.796875 62.109375 29.503906 C 62.476562 29.210938 62.769531 29.0625 62.988281 29.0625 C 63.425781 29.0625 63.71875 29.355469 63.863281 29.941406 C 64.011719 30.527344 64.082031 31.183594 64.082031 31.988281 C 64.082031 32.863281 64.011719 33.667969 63.863281 34.472656 C 63.71875 35.347656 63.574219 36.515625 63.351562 37.90625 C 63.132812 39.292969 62.914062 40.753906 62.769531 42.363281 C 62.621094 43.898438 62.550781 45.433594 62.550781 46.894531 C 62.550781 47.550781 62.550781 48.136719 62.621094 48.71875 C 62.695312 49.304688 62.769531 49.890625 62.839844 50.328125 C 63.0625 51.570312 63.574219 52.59375 64.449219 53.398438 C 65.253906 54.199219 66.347656 54.566406 67.519531 54.566406 L 67.664062 54.566406 C 69.492188 54.566406 71.027344 53.980469 72.195312 52.738281 C 73.289062 51.570312 74.167969 50.183594 74.753906 48.574219 C 74.753906 48.648438 74.753906 48.792969 74.824219 48.867188 C 75.191406 50.546875 75.703125 51.863281 76.433594 52.886719 C 77.164062 53.910156 78.039062 54.421875 79.136719 54.421875 L 79.210938 54.421875 C 80.378906 54.421875 81.476562 53.761719 82.496094 52.519531 C 83.519531 51.277344 84.398438 49.671875 85.273438 47.699219 C 86.078125 45.722656 86.808594 43.75 87.320312 41.707031 C 87.320312 42.800781 87.394531 44.042969 87.613281 45.503906 C 87.757812 46.96875 88.125 48.355469 88.5625 49.742188 C 89.074219 51.132812 89.730469 52.226562 90.535156 53.179688 C 91.414062 54.054688 92.507812 54.492188 93.898438 54.492188 C 95.285156 54.492188 96.453125 53.980469 97.40625 52.886719 C 98.355469 51.789062 99.160156 50.472656 99.667969 49.011719 C 99.597656 49.523438 99.597656 49.960938 99.523438 50.402344 C 99.449219 50.621094 99.449219 50.839844 99.449219 51.058594 L 99.449219 51.644531 C 99.449219 52.738281 99.667969 53.542969 100.109375 54.054688 C 100.546875 54.566406 101.058594 54.785156 101.714844 54.785156 C 102.152344 54.785156 102.59375 54.640625 103.105469 54.421875 C 103.617188 54.199219 103.980469 53.980469 104.347656 53.761719 C 104.054688 52.15625 103.90625 50.621094 103.90625 49.085938 C 103.90625 46.527344 104.199219 44.042969 104.710938 41.632812 C 105.222656 39.222656 105.953125 37.027344 106.757812 35.128906 C 107.5625 33.230469 108.367188 31.769531 109.167969 30.746094 C 109.972656 29.722656 110.628906 29.210938 111.140625 29.210938 C 111.652344 29.210938 112.019531 29.503906 112.164062 30.085938 C 112.3125 30.671875 112.382812 31.257812 112.382812 31.914062 C 112.382812 33.886719 112.238281 35.859375 111.945312 37.980469 C 111.652344 40.097656 111.507812 42.21875 111.507812 44.335938 C 111.507812 45.214844 111.507812 46.089844 111.582031 46.894531 C 111.652344 47.769531 111.800781 48.648438 111.945312 49.453125 C 112.238281 50.984375 112.75 52.226562 113.480469 53.25 C 114.210938 54.199219 115.160156 54.710938 116.402344 54.710938 C 118.304688 54.710938 119.765625 54.054688 120.859375 52.8125 C 121.808594 51.714844 122.542969 50.472656 123.054688 49.011719 C 123.054688 49.085938 123.054688 49.160156 123.054688 49.160156 C 122.980469 50.472656 122.980469 51.570312 122.90625 52.519531 C 122.832031 53.46875 122.761719 54.128906 122.6875 54.492188 C 123.855469 54.492188 124.804688 53.910156 125.609375 52.8125 C 125.976562 52.300781 126.195312 51.496094 126.339844 50.402344 C 126.414062 50.328125 126.488281 50.253906 126.488281 50.109375 C 126.707031 48.941406 127.144531 47.257812 127.730469 44.992188 C 128.3125 42.730469 129.042969 40.464844 129.921875 38.125 L 129.996094 38.125 C 129.996094 38.199219 129.996094 38.199219 129.996094 38.199219 C 129.996094 38.199219 129.996094 38.269531 129.996094 38.34375 C 130.066406 39.003906 130.285156 39.953125 130.507812 41.195312 C 130.726562 42.4375 131.089844 43.75 131.527344 45.140625 C 131.96875 46.527344 132.40625 47.84375 132.917969 49.011719 C 133.574219 50.621094 134.453125 52.007812 135.402344 53.03125 C 136.425781 54.054688 137.8125 54.566406 139.640625 54.566406 L 140.078125 54.566406 C 141.027344 54.492188 141.90625 54.199219 142.636719 53.6875 C 143.441406 53.179688 144.097656 52.445312 144.609375 51.570312 C 145.265625 50.546875 145.777344 49.453125 146.144531 48.28125 C 146.507812 47.113281 146.726562 46.015625 146.800781 45.066406 L 146.800781 44.773438 C 146.800781 44.410156 146.65625 44.191406 146.4375 44.191406 Z M 56.851562 9.261719 C 57.359375 7.363281 58.019531 6.410156 58.675781 6.410156 C 59.1875 6.410156 59.625 6.851562 59.847656 7.726562 C 60.066406 8.605469 60.210938 9.699219 60.285156 11.015625 L 60.285156 11.671875 C 60.285156 12.039062 60.285156 12.476562 60.285156 12.914062 C 59.480469 12.988281 58.824219 12.988281 58.3125 12.988281 C 57.582031 12.988281 56.777344 12.988281 56.046875 12.914062 C 56.265625 11.527344 56.558594 10.359375 56.851562 9.261719 Z M 54.875 32.789062 L 54.875 30.160156 C 54.875 27.894531 54.949219 25.628906 55.023438 23.292969 C 55.097656 20.953125 55.316406 18.613281 55.535156 16.277344 C 55.535156 16.058594 55.609375 15.765625 55.609375 15.546875 C 57.070312 15.617188 58.53125 15.617188 59.992188 15.617188 C 59.847656 16.496094 59.699219 17.445312 59.554688 18.394531 C 59.042969 20.808594 58.382812 23.292969 57.582031 25.777344 C 56.777344 28.1875 55.898438 30.527344 54.875 32.789062 Z M 87.539062 33.082031 C 87.394531 35.203125 87.027344 37.320312 86.445312 39.441406 C 86.078125 40.828125 85.640625 42.289062 85.128906 43.75 C 84.617188 45.214844 84.105469 46.527344 83.449219 47.550781 C 82.863281 48.574219 82.207031 49.085938 81.476562 49.085938 C 81.035156 49.085938 80.597656 48.792969 80.160156 48.210938 C 79.722656 47.625 79.503906 46.675781 79.355469 45.285156 C 79.28125 44.847656 79.28125 44.335938 79.28125 43.824219 C 79.28125 43.3125 79.28125 42.800781 79.28125 42.363281 C 79.28125 40.390625 79.429688 38.34375 79.792969 36.226562 C 80.160156 34.105469 80.671875 32.207031 81.402344 30.671875 C 81.988281 29.429688 82.789062 28.261719 83.8125 27.3125 C 84.835938 26.289062 85.859375 25.847656 86.882812 25.847656 C 87.539062 25.847656 88.199219 26.140625 88.710938 26.726562 C 88.125 28.773438 87.757812 30.890625 87.539062 33.082031 Z M 126.414062 33.011719 C 126.339844 32.71875 126.339844 32.5 126.339844 32.207031 L 126.339844 31.621094 C 126.339844 31.039062 126.339844 30.015625 126.414062 28.625 C 126.488281 27.164062 126.558594 25.558594 126.632812 23.730469 C 126.707031 21.902344 126.851562 20.003906 127 18.03125 C 127.144531 16.058594 127.363281 14.304688 127.65625 12.625 C 127.949219 10.722656 128.3125 9.1875 128.753906 8.164062 C 129.191406 7.070312 129.703125 6.558594 130.214844 6.558594 C 130.726562 6.558594 131.164062 6.996094 131.382812 7.875 C 131.601562 8.75 131.75 9.847656 131.820312 11.160156 L 131.820312 11.890625 C 131.820312 13.9375 131.601562 16.203125 131.089844 18.6875 C 130.578125 21.097656 129.921875 23.582031 129.117188 26.066406 C 128.3125 28.40625 127.363281 30.746094 126.414062 33.011719 Z M 130.359375 37.613281 C 130.652344 36.957031 131.019531 36.152344 131.527344 35.054688 C 132.039062 33.960938 132.625 32.863281 133.28125 31.695312 C 133.941406 30.597656 134.671875 29.574219 135.476562 28.84375 C 136.277344 28.042969 137.082031 27.675781 137.886719 27.675781 C 138.691406 27.675781 139.054688 28.113281 139.054688 28.992188 C 139.054688 29.867188 138.691406 30.890625 137.960938 32.207031 C 137.230469 33.449219 136.207031 34.617188 134.890625 35.714844 C 133.574219 36.664062 132.039062 37.320312 130.359375 37.613281 Z M 216.144531 23.144531 C 215.195312 22.050781 213.882812 21.539062 212.273438 21.539062 C 209.863281 21.539062 207.890625 22.195312 206.355469 23.4375 C 204.894531 24.753906 203.722656 26.359375 202.921875 28.261719 C 202.117188 30.160156 201.679688 32.132812 201.457031 34.03125 C 201.386719 34.765625 201.3125 35.640625 201.238281 36.589844 C 201.238281 36.882812 201.167969 37.175781 201.167969 37.46875 C 201.09375 37.101562 200.945312 36.882812 200.65625 36.808594 C 200.363281 36.738281 199.996094 36.664062 199.632812 36.664062 C 199.265625 36.664062 198.828125 36.738281 198.242188 36.808594 C 197.730469 36.882812 197.148438 37.101562 196.488281 37.46875 L 196.199219 37.613281 C 195.90625 35.421875 195.613281 33.230469 195.320312 30.890625 C 195.027344 28.625 194.664062 26.289062 194.296875 23.949219 C 194.003906 21.976562 193.714844 20.367188 193.492188 19.199219 C 193.273438 18.03125 193.128906 17.300781 192.980469 17.007812 C 192.910156 16.933594 192.910156 16.351562 192.835938 15.398438 C 192.761719 14.449219 192.691406 13.355469 192.617188 12.113281 C 192.542969 10.871094 192.398438 9.847656 192.25 8.894531 C 192.105469 7.945312 191.960938 7.507812 191.8125 7.507812 L 191.738281 7.507812 C 191.449219 7.070312 191.15625 6.851562 191.007812 6.851562 C 190.132812 6.921875 189.476562 7.433594 189.035156 8.457031 C 188.671875 9.480469 188.378906 10.941406 188.160156 12.769531 C 188.011719 14.597656 187.722656 16.714844 187.503906 19.054688 C 187.210938 21.390625 186.699219 23.875 186.039062 26.507812 C 185.238281 29.503906 184.214844 32.425781 182.972656 35.203125 C 181.730469 38.050781 180.414062 40.535156 178.953125 42.800781 C 177.492188 45.066406 175.957031 46.820312 174.277344 48.136719 C 172.667969 49.453125 170.988281 50.109375 169.378906 50.109375 L 169.015625 50.109375 C 167.773438 50.035156 166.894531 49.378906 166.382812 48.210938 C 165.871094 47.039062 165.652344 45.652344 165.652344 43.972656 C 165.652344 42.363281 165.800781 40.683594 166.09375 38.855469 C 166.382812 37.027344 166.75 35.273438 167.1875 33.523438 C 167.625 31.769531 167.992188 30.234375 168.429688 28.917969 C 168.796875 27.601562 169.089844 26.652344 169.234375 26.140625 C 169.527344 25.117188 169.890625 23.65625 170.332031 21.832031 C 170.769531 20.003906 171.207031 17.957031 171.644531 15.765625 C 172.011719 13.574219 172.230469 11.453125 172.230469 9.40625 C 172.230469 7.726562 172.011719 6.121094 171.644531 4.730469 C 171.28125 3.34375 170.621094 2.175781 169.746094 1.371094 C 168.867188 0.566406 167.554688 0.128906 165.945312 0.128906 C 163.609375 0.128906 161.5625 0.640625 159.734375 1.589844 C 157.90625 2.613281 156.300781 3.925781 154.984375 5.535156 C 153.597656 7.214844 152.5 8.96875 151.550781 10.871094 C 150.675781 12.769531 149.941406 14.667969 149.433594 16.570312 C 149.066406 17.957031 148.773438 19.347656 148.628906 20.734375 C 148.480469 22.121094 148.335938 23.4375 148.335938 24.679688 C 148.335938 26.726562 148.554688 28.625 148.921875 30.160156 C 149.359375 31.769531 149.796875 32.863281 150.382812 33.523438 C 150.675781 33.8125 150.964844 33.960938 151.257812 33.960938 C 151.84375 33.960938 152.136719 33.667969 152.136719 33.15625 C 152.136719 32.863281 151.988281 32.644531 151.695312 32.5 C 151.257812 32.28125 150.964844 31.769531 150.820312 30.964844 C 150.675781 30.160156 150.527344 29.210938 150.527344 28.042969 C 150.527344 26.359375 150.675781 24.460938 151.039062 22.269531 C 151.40625 20.078125 151.917969 17.8125 152.648438 15.546875 C 153.378906 13.28125 154.179688 11.160156 155.132812 9.261719 C 156.082031 7.363281 157.175781 5.753906 158.417969 4.585938 C 159.660156 3.417969 160.976562 2.757812 162.4375 2.757812 C 163.828125 2.757812 164.703125 3.5625 165.214844 5.097656 C 165.726562 6.632812 165.945312 8.53125 165.945312 10.796875 C 165.945312 12.625 165.800781 14.523438 165.582031 16.570312 C 165.359375 18.613281 165.070312 20.589844 164.703125 22.414062 C 164.339844 24.242188 164.046875 25.847656 163.753906 27.238281 C 163.460938 28.554688 163.316406 29.503906 163.242188 29.941406 C 163.097656 30.816406 162.804688 32.058594 162.4375 33.667969 C 162.074219 35.273438 161.78125 37.027344 161.414062 39.003906 C 161.125 40.902344 160.976562 42.800781 160.976562 44.628906 C 160.976562 46.96875 161.34375 49.011719 162.144531 50.839844 C 162.949219 52.59375 164.410156 53.542969 166.53125 53.6875 L 167.042969 53.6875 C 169.160156 53.6875 171.207031 53.03125 173.105469 51.789062 C 175.007812 50.472656 176.832031 48.792969 178.441406 46.601562 C 180.121094 44.410156 181.582031 41.925781 182.972656 39.222656 C 184.359375 36.445312 185.527344 33.59375 186.625 30.671875 C 187.136719 29.210938 187.574219 27.820312 188.085938 26.507812 C 188.523438 25.191406 188.964844 23.949219 189.328125 22.78125 C 189.476562 23.949219 189.621094 25.410156 189.765625 27.089844 C 189.914062 28.773438 190.132812 30.453125 190.351562 32.207031 C 190.570312 33.960938 190.71875 35.566406 190.863281 37.027344 C 191.007812 38.492188 191.082031 39.511719 191.230469 40.246094 C 188.453125 42.070312 185.894531 44.117188 183.484375 46.457031 C 181.070312 48.792969 178.660156 51.714844 176.25 55.152344 C 174.640625 57.488281 173.105469 60.121094 171.792969 62.894531 C 170.476562 65.746094 169.820312 68.597656 169.820312 71.59375 C 169.820312 73.273438 170.109375 74.808594 170.621094 76.195312 C 171.132812 77.582031 172.082031 78.753906 173.398438 79.558594 C 174.714844 80.433594 176.394531 80.871094 178.515625 80.871094 C 181.4375 80.871094 183.996094 80.140625 186.039062 78.753906 C 188.085938 77.292969 189.839844 75.464844 191.230469 73.054688 C 192.617188 70.714844 193.714844 68.085938 194.515625 65.234375 C 195.320312 62.386719 195.90625 59.535156 196.199219 56.613281 C 196.5625 53.761719 196.710938 51.132812 196.710938 48.71875 C 196.710938 45.140625 196.5625 41.996094 196.269531 39.222656 C 196.710938 38.929688 197.21875 38.710938 197.953125 38.417969 C 198.683594 38.125 199.339844 37.980469 199.925781 37.980469 C 200.144531 37.980469 200.363281 37.90625 200.582031 37.832031 C 200.726562 37.761719 200.875 37.613281 200.875 37.46875 C 200.800781 38.199219 200.800781 38.929688 200.800781 39.734375 C 200.800781 41.195312 200.875 42.730469 201.09375 44.335938 C 201.3125 45.871094 201.679688 47.332031 202.1875 48.648438 C 202.699219 49.960938 203.429688 51.058594 204.453125 51.863281 C 205.40625 52.667969 206.71875 53.105469 208.253906 53.105469 C 209.863281 53.105469 211.25 52.519531 212.417969 51.425781 C 213.589844 50.328125 214.613281 48.941406 215.414062 47.332031 C 216.21875 45.726562 216.804688 44.191406 217.167969 42.800781 C 217.460938 41.707031 217.753906 40.246094 218.046875 38.492188 C 218.265625 36.738281 218.410156 34.835938 218.410156 32.9375 C 218.410156 31.039062 218.191406 29.210938 217.828125 27.457031 C 217.679688 25.628906 217.023438 24.242188 216.144531 23.144531 Z M 192.105469 59.167969 C 191.886719 61.652344 191.449219 64.140625 190.9375 66.476562 C 190.351562 68.816406 189.621094 70.933594 188.597656 72.835938 C 187.574219 74.734375 186.332031 76.269531 184.726562 77.363281 C 183.191406 78.460938 181.21875 79.046875 178.953125 79.046875 C 177.5625 79.046875 176.542969 78.605469 175.664062 77.804688 C 174.859375 77 174.277344 75.902344 173.910156 74.660156 C 173.546875 73.417969 173.398438 72.101562 173.398438 70.714844 C 173.398438 68.15625 173.984375 65.453125 175.152344 62.605469 C 176.320312 59.753906 177.855469 56.90625 179.683594 54.199219 C 181.582031 51.496094 183.554688 49.011719 185.75 46.820312 C 187.867188 44.628906 189.914062 42.875 191.886719 41.632812 C 192.03125 42.800781 192.179688 44.261719 192.25 46.089844 C 192.398438 47.917969 192.398438 49.816406 192.398438 51.863281 C 192.472656 54.273438 192.324219 56.683594 192.105469 59.167969 Z M 216.21875 39.148438 C 216.074219 40.246094 215.925781 41.121094 215.78125 41.851562 C 215.632812 42.65625 215.269531 43.679688 214.832031 44.847656 C 214.390625 46.015625 213.808594 47.039062 213.148438 47.988281 C 212.492188 48.867188 211.6875 49.378906 210.738281 49.378906 C 209.714844 49.378906 208.910156 48.867188 208.328125 47.84375 C 207.816406 46.820312 207.378906 45.503906 207.230469 43.972656 C 207.011719 42.4375 206.9375 40.902344 206.9375 39.367188 C 206.9375 38.125 207.011719 37.027344 207.085938 36.007812 C 207.304688 33.300781 207.378906 30.304688 208.765625 27.894531 C 209.714844 26.214844 211.835938 25.335938 213.589844 26.507812 C 214.902344 27.382812 215.632812 28.992188 216 30.527344 C 216.367188 32.207031 216.4375 34.03125 216.4375 35.714844 C 216.367188 36.882812 216.292969 38.050781 216.21875 39.148438 Z M 324 44.261719 C 323.414062 42.582031 322.390625 41.121094 321.148438 39.878906 C 319.90625 38.710938 318.445312 37.761719 316.839844 37.101562 C 313.625 35.714844 310.1875 34.984375 306.753906 34.691406 C 305.878906 34.617188 305 34.617188 304.125 34.617188 C 303.246094 34.617188 302.371094 34.617188 301.492188 34.691406 C 300.617188 34.765625 299.738281 34.835938 298.863281 34.910156 C 298.425781 34.984375 297.988281 35.054688 297.546875 35.128906 C 297.109375 35.203125 296.671875 35.273438 296.234375 35.347656 C 292.796875 35.933594 289.4375 36.882812 286.074219 37.980469 C 282.714844 39.074219 279.425781 40.316406 276.136719 41.707031 L 271.167969 43.679688 C 270.367188 44.042969 269.5625 44.335938 268.683594 44.703125 C 267.808594 44.992188 267.003906 45.359375 266.128906 45.578125 C 262.691406 46.746094 259.039062 47.550781 255.3125 47.257812 C 253.484375 47.113281 251.585938 46.675781 249.976562 45.796875 C 249.175781 45.359375 248.371094 44.847656 247.714844 44.191406 C 247.347656 43.898438 247.054688 43.53125 246.761719 43.167969 C 246.691406 44.335938 246.324219 45.652344 245.8125 47.113281 C 245.300781 48.574219 244.496094 49.890625 243.546875 50.984375 C 242.597656 52.082031 241.429688 52.59375 240.039062 52.59375 C 238.507812 52.59375 237.265625 52.007812 236.386719 50.914062 C 235.511719 49.816406 234.851562 48.429688 234.414062 46.820312 C 233.976562 45.214844 233.757812 43.679688 233.683594 42.144531 C 233.390625 43.3125 233.027344 44.480469 232.585938 45.652344 C 232.148438 46.820312 231.710938 47.84375 231.125 48.792969 C 229.519531 51.277344 227.765625 52.519531 225.792969 52.519531 C 224.769531 52.519531 223.890625 52.082031 223.089844 51.277344 C 222.285156 50.472656 221.699219 49.230469 221.335938 47.550781 C 221.1875 46.746094 221.042969 45.796875 220.96875 44.628906 C 220.894531 43.460938 220.894531 42.21875 220.894531 40.902344 C 220.894531 38.929688 220.96875 36.882812 221.113281 34.691406 C 221.261719 32.570312 221.480469 30.597656 221.773438 28.84375 C 222.066406 27.019531 222.355469 25.703125 222.722656 24.753906 C 222.941406 24.242188 223.378906 23.730469 223.964844 23.292969 C 224.550781 22.851562 225.351562 22.707031 226.375 22.707031 C 227.035156 22.707031 227.765625 22.78125 228.421875 23 C 228.277344 23.511719 228.058594 24.679688 227.617188 26.507812 C 227.253906 28.332031 226.886719 30.453125 226.667969 32.71875 C 226.523438 34.324219 226.304688 35.933594 226.15625 37.539062 C 226.011719 39.222656 225.9375 40.753906 225.9375 42.21875 C 225.9375 44.042969 226.082031 45.652344 226.375 46.894531 C 226.667969 48.136719 227.179688 48.792969 227.910156 48.792969 C 228.789062 48.792969 229.519531 48.28125 230.175781 47.257812 C 230.832031 46.234375 231.417969 44.992188 231.929688 43.386719 C 232.441406 41.851562 232.804688 40.316406 233.097656 38.78125 C 233.539062 36.519531 233.902344 34.105469 234.195312 31.476562 C 234.488281 28.84375 234.851562 26.652344 235.289062 24.753906 C 235.4375 24.242188 235.800781 23.730469 236.460938 23.292969 C 237.117188 22.851562 237.921875 22.707031 238.945312 22.707031 C 239.601562 22.707031 240.332031 22.78125 240.992188 23 C 240.625 24.023438 240.261719 25.484375 239.96875 27.457031 C 239.601562 29.429688 239.308594 31.621094 239.089844 34.03125 C 238.871094 36.445312 238.726562 38.78125 238.726562 41.195312 C 238.726562 42.363281 238.796875 43.679688 238.871094 45.066406 C 239.019531 46.457031 239.238281 47.699219 239.601562 48.648438 C 239.96875 49.671875 240.550781 50.109375 241.28125 50.109375 L 241.355469 50.109375 C 241.722656 50.109375 242.085938 49.960938 242.523438 49.597656 C 242.964844 49.230469 243.402344 48.574219 243.914062 47.550781 C 244.277344 46.894531 244.570312 46.164062 244.863281 45.285156 C 245.007812 44.773438 245.230469 44.191406 245.375 43.679688 C 245.519531 43.3125 245.59375 42.949219 245.738281 42.582031 C 245.8125 42.363281 245.960938 41.996094 246.25 41.925781 C 246.324219 41.925781 246.472656 41.925781 246.542969 41.996094 C 246.617188 42.070312 246.691406 42.144531 246.761719 42.21875 C 247.128906 42.582031 247.492188 42.949219 247.933594 43.238281 C 248.296875 43.53125 248.664062 43.824219 249.101562 44.042969 C 249.46875 44.261719 249.90625 44.480469 250.34375 44.703125 C 251.878906 45.359375 253.632812 45.652344 255.3125 45.652344 C 256.992188 45.652344 258.746094 45.433594 260.425781 45.066406 C 262.109375 44.703125 263.789062 44.191406 265.398438 43.53125 C 267.003906 42.949219 268.613281 42.21875 270.292969 41.488281 L 275.1875 39.367188 C 278.476562 37.980469 281.835938 36.664062 285.273438 35.566406 C 288.707031 34.472656 292.214844 33.59375 295.792969 33.011719 C 299.375 32.5 303.027344 32.28125 306.683594 32.789062 C 308.507812 33.011719 310.261719 33.375 312.015625 33.886719 C 313.769531 34.398438 315.449219 35.054688 317.058594 35.933594 C 318.664062 36.808594 320.199219 37.90625 321.371094 39.292969 C 321.953125 40.023438 322.464844 40.753906 322.902344 41.558594 C 323.488281 42.507812 323.855469 43.386719 324 44.261719 Z M 324 44.261719 " fill-opacity="1" fill-rule="nonzero"/></svg>